<svg xmlns="http://www.w3.org/2000/svg" width="937" height="879" xml:space="preserve"><g fill="#FFCF00"><path d="M62.467 750.083H93.7V718.85H62.467c-17.252 0-31.233-13.979-31.233-31.231V62.95c0-17.252 13.981-31.233 31.233-31.233H749.6c17.253 0 31.233 13.98 31.233 31.233v31.233h31.233V62.95c0-34.497-27.971-62.466-62.469-62.466H62.467C27.969.483 0 28.453 0 62.95v624.667c0 34.496 27.969 62.466 62.467 62.466z"/><path d="M62.467 62.95H93.7v31.233H62.467V62.95zM124.933 62.95h31.233v31.233h-31.233V62.95zM187.4 62.95h31.233v31.233H187.4V62.95zM124.933 812.55c0 34.497 27.97 62.467 62.467 62.467h687.133c34.497 0 62.467-27.97 62.467-62.467V187.883c0-34.498-27.97-62.467-62.467-62.467H187.4c-34.497 0-62.467 27.969-62.467 62.467V812.55zm31.234-624.667c0-17.252 13.981-31.233 31.233-31.233h687.133c17.253 0 31.231 13.981 31.231 31.233V812.55c0 17.253-13.979 31.233-31.231 31.233H187.4c-17.252 0-31.233-13.98-31.233-31.233V187.883z"/><path d="M187.4 187.883h31.233v31.233H187.4v-31.233zM249.867 187.883H281.1v31.233h-31.233v-31.233zM312.333 187.883h31.233v31.233h-31.233v-31.233zM187.4 250.35h687.133v31.233H187.4V250.35zM187.4 328.433h124.933v31.233H187.4v-31.233zM187.4 390.9h93.7v31.233h-93.7V390.9zM530.967 453.366c-60.378 0-109.314 48.938-109.314 109.315 0 60.379 48.937 109.318 109.314 109.318s109.316-48.938 109.316-109.316c-.07-60.342-48.973-109.245-109.316-109.317zm0 187.401c-43.122 0-78.083-34.962-78.083-78.083s34.961-78.084 78.083-78.084c43.121 0 78.083 34.964 78.083 78.084-.055 43.101-34.982 78.028-78.083 78.083z"/><path d="M780.833 515.833c0-8.628-6.988-15.616-15.616-15.616h-41.273a198.99 198.99 0 0 0-12.354-29.828l29.188-29.168c6.091-6.103 6.091-15.981 0-22.086l-66.264-66.262c-6.102-6.09-15.981-6.09-22.085 0l-29.169 29.172a201.977 201.977 0 0 0-29.827-12.337v-41.275c0-8.628-6.986-15.617-15.616-15.617h-93.699c-8.628 0-15.616 6.989-15.616 15.617v41.275a202.16 202.16 0 0 0-29.828 12.337l-29.168-29.172c-6.103-6.09-15.983-6.09-22.086 0l-66.262 66.262c-6.091 6.104-6.091 15.983 0 22.086l29.173 29.168a197.54 197.54 0 0 0-3.748 7.715 201.922 201.922 0 0 0-8.59 22.113h-41.274c-8.628 0-15.617 6.988-15.617 15.616v93.7c0 8.628 6.988 15.616 15.617 15.616h41.274a198.709 198.709 0 0 0 12.354 29.827l-29.188 29.168c-6.09 6.104-6.09 15.982 0 22.087l66.262 66.262c6.104 6.091 15.984 6.091 22.086 0l29.168-29.172a202.729 202.729 0 0 0 29.828 12.337v41.273c0 8.628 6.988 15.616 15.616 15.616h93.7c8.629 0 15.615-6.987 15.615-15.616v-41.273a202.537 202.537 0 0 0 29.827-12.337l29.169 29.172c6.104 6.091 15.983 6.091 22.085 0l66.264-66.262c6.091-6.104 6.091-15.983 0-22.087l-29.188-29.168a198.813 198.813 0 0 0 12.354-29.827h41.273c8.628 0 15.616-6.988 15.616-15.616l-.001-93.7zM749.6 593.916h-37.386a15.617 15.617 0 0 0-15.117 11.713 170.676 170.676 0 0 1-18.271 44.164c-3.619 6.13-2.624 13.938 2.405 18.975l26.401 26.42-44.162 44.182-26.419-26.423a15.615 15.615 0 0 0-18.98-2.405 170.554 170.554 0 0 1-44.156 18.271 15.613 15.613 0 0 0-11.712 15.117v37.388h-62.467V743.93a15.615 15.615 0 0 0-11.715-15.117 170.535 170.535 0 0 1-44.154-18.271 15.616 15.616 0 0 0-18.981 2.405l-26.42 26.423-44.166-44.184 26.404-26.419a15.628 15.628 0 0 0 2.405-18.975 170.607 170.607 0 0 1-18.271-44.164 15.617 15.617 0 0 0-15.117-11.713h-37.387V531.45h37.387a15.617 15.617 0 0 0 15.117-11.713 169.487 169.487 0 0 1 10.154-28.621 170.827 170.827 0 0 1 8.117-15.617 15.633 15.633 0 0 0-2.405-18.962l-26.404-26.42 44.164-44.184 26.42 26.432a15.61 15.61 0 0 0 18.981 2.393 170.863 170.863 0 0 1 44.154-18.271 15.613 15.613 0 0 0 11.715-15.109V344.05H562.2v37.386a15.615 15.615 0 0 0 11.712 15.117 170.659 170.659 0 0 1 44.156 18.271 15.615 15.615 0 0 0 18.98-2.404l26.419-26.424 44.164 44.184-26.401 26.42c-5.029 5.036-6.024 12.847-2.405 18.976a170.775 170.775 0 0 1 18.271 44.164 15.617 15.617 0 0 0 15.117 11.713H749.6v62.463zM780.833 781.316h93.7v31.231h-93.7v-31.231z"/></g></svg>