<svg xmlns="http://www.w3.org/2000/svg" width="297" height="298.5" xml:space="preserve"><path fill="#FFCF00" d="M268.005 210.174c-2.938-7.547-10.06-12.422-18.155-12.422h-40.49v-7.721l31.229-31.23h18.15c2.177 8.381 9.737 14.605 18.784 14.605 10.74 0 19.476-8.734 19.476-19.475 0-10.742-8.733-19.477-19.476-19.477-9.047 0-16.607 6.228-18.784 14.607h-20.166a4.862 4.862 0 0 0-3.443 1.426l-25.771 25.771v-15.443l57-57a4.853 4.853 0 0 0 1.428-3.441V41.259c8.374-2.176 14.605-9.733 14.605-18.784C282.395 11.734 273.658 3 262.917 3s-19.478 8.734-19.478 19.475c0 9.051 6.232 16.608 14.606 18.784v57.102l-4.868 4.869-14.604-14.606V66.295h-9.738v24.344c0 1.295.513 2.532 1.429 3.442l16.031 16.033-27.197 27.197-9.736-9.738v-17.459h-9.737v19.475a4.85 4.85 0 0 0 1.426 3.442l11.165 11.165-11.165 11.164a4.854 4.854 0 0 0-1.426 3.443v38.949h-19.476v-80.753l27.785-27.787a4.847 4.847 0 0 0 1.428-3.442V55.865c8.373-2.176 14.604-9.733 14.604-18.784 0-10.741-8.733-19.476-19.475-19.476s-19.478 8.735-19.478 19.476c0 9.051 6.231 16.607 14.606 18.784v27.889l-27.787 27.786a4.849 4.849 0 0 0-1.426 3.442v82.77H150.93V41.259c8.373-2.176 14.604-9.733 14.604-18.784C165.538 11.734 156.805 3 146.063 3s-19.476 8.734-19.476 19.475c0 9.051 6.232 16.608 14.606 18.784V142.18l-14.606-14.606V90.639h-9.738v38.951c0 1.295.511 2.531 1.426 3.441l22.918 22.917v41.805h-19.476v-24.346a4.843 4.843 0 0 0-1.426-3.441L75.044 124.72l25.771-25.771a4.844 4.844 0 0 0 1.427-3.442V60.735c8.374-2.176 14.606-9.733 14.606-18.784 0-10.741-8.735-19.476-19.476-19.476S77.897 31.21 77.897 41.951c0 9.051 6.232 16.608 14.606 18.784v32.757l-24.344 24.345-9.738-9.737V89.948c8.375-2.176 14.606-9.733 14.606-18.784 0-10.741-8.735-19.475-19.475-19.475-10.741 0-19.476 8.734-19.476 19.475 0 9.051 6.232 16.608 14.606 18.784v20.167c0 1.296.511 2.532 1.427 3.442l61.868 61.867v22.33h-19.47v-14.605c0-1.295-.511-2.53-1.427-3.442L24.343 112.97V41.26c8.375-2.176 14.606-9.733 14.606-18.784C38.949 11.734 30.215 3 19.474 3 8.733 3-.001 11.734-.001 22.475c0 9.051 6.232 16.608 14.606 18.784v73.724a4.84 4.84 0 0 0 1.427 3.441l25.771 25.771h-2.854a4.86 4.86 0 0 0-3.442 1.426l-6.203 6.203c-2.897-1.713-6.228-2.76-9.83-2.76-10.74 0-19.475 8.734-19.475 19.477s8.735 19.477 19.476 19.477 19.475-8.733 19.475-19.477c0-3.604-1.047-6.934-2.76-9.832l4.776-4.773h10.575l31.229 31.229v12.59H42.28c-8.097 0-15.215 4.875-18.151 12.422L1.406 268.6a19.453 19.453 0 0 0 2.079 18.049 19.457 19.457 0 0 0 16.077 8.48h253.01a19.465 19.465 0 0 0 16.076-8.48 19.464 19.464 0 0 0 2.078-18.049l-22.721-58.426zm9.516-65.978c5.371 0 9.737 4.367 9.737 9.738 0 5.371-4.366 9.736-9.737 9.736-5.369 0-9.735-4.365-9.735-9.736 0-5.37 4.366-9.738 9.735-9.738zM253.18 22.475c0-5.37 4.367-9.738 9.737-9.738 5.371 0 9.737 4.368 9.737 9.738 0 5.371-4.366 9.738-9.737 9.738-5.37-.001-9.737-4.368-9.737-9.738zm-58.427 14.607c0-5.371 4.367-9.738 9.738-9.738 5.368 0 9.735 4.367 9.735 9.738 0 5.37-4.367 9.737-9.735 9.737-5.371 0-9.738-4.367-9.738-9.737zM87.638 41.95c0-5.371 4.368-9.738 9.738-9.738 5.371 0 9.738 4.367 9.738 9.738 0 5.37-4.367 9.738-9.738 9.738-5.37 0-9.738-4.368-9.738-9.738zM43.819 71.163c0-5.37 4.367-9.737 9.738-9.737 5.37 0 9.737 4.367 9.737 9.737 0 5.371-4.367 9.738-9.737 9.738-5.371 0-9.738-4.367-9.738-9.738zM9.737 22.475c0-5.37 4.367-9.738 9.738-9.738 5.37 0 9.737 4.368 9.737 9.738 0 5.371-4.367 9.738-9.737 9.738-5.371-.001-9.738-4.368-9.738-9.738zm9.738 155.802c-5.371 0-9.738-4.367-9.738-9.736 0-5.371 4.367-9.736 9.738-9.736 5.37 0 9.737 4.365 9.737 9.736 0 5.369-4.367 9.736-9.737 9.736zm160.671 29.213h19.477v9.738h-19.477v-9.738zm-9.737 0v9.738h-19.478v-9.738h19.478zM136.327 22.475c0-5.37 4.367-9.738 9.737-9.738s9.736 4.368 9.736 9.738c0 5.371-4.366 9.738-9.736 9.738-5.37 0-9.737-4.368-9.737-9.738zM121.72 207.49h19.476v9.738H121.72v-9.738zm-29.213 0h19.475v9.738H92.507v-9.738zm0 38.951v-19.476h19.475v19.476h9.738v-19.476h19.476v19.476h9.74v-19.476h19.476v19.476h9.737v-19.476h19.476v19.476h9.737v-19.476h20.834l11.359 34.08H50.572l11.359-34.08H82.77v19.476h9.737zm188.102 34.711c-1.846 2.697-4.775 4.24-8.043 4.24H19.562c-3.262 0-6.193-1.543-8.039-4.24-1.845-2.697-2.225-5.984-1.042-9.027l22.723-58.426c1.47-3.77 5.029-6.209 9.076-6.209h40.489v9.738H58.425a4.87 4.87 0 0 0-4.621 3.33l-14.606 43.819a4.863 4.863 0 0 0 .672 4.388 4.878 4.878 0 0 0 3.949 2.02h204.494a4.854 4.854 0 0 0 3.946-2.02 4.884 4.884 0 0 0 .673-4.388l-14.604-43.819a4.872 4.872 0 0 0-4.621-3.33H209.36v-9.738h40.488c4.047 0 7.605 2.439 9.076 6.209l22.723 58.426c1.184 3.043.809 6.33-1.038 9.027z"/><path fill="#FFCF00" d="M116.853 60.861h9.738v19.475h-9.738zM228.836 46.254h9.738v9.738h-9.738z"/></svg>