<svg xmlns="http://www.w3.org/2000/svg" width="250.5" height="306.5" xml:space="preserve"><path fill="#FFCF00" d="M124.816 30.709a5.783 5.783 0 0 0-5.794 5.795 5.778 5.778 0 0 0 5.215 5.765 5.784 5.784 0 0 0 6.375-5.765 5.784 5.784 0 0 0-5.796-5.795z"/><path fill="#FFCF00" d="M240.832 42.305c-15.992 0-29.004-13.011-29.004-29.004a5.802 5.802 0 0 0-5.801-5.801H43.606a5.802 5.802 0 0 0-5.801 5.801c0 15.993-13.011 29.004-29.004 29.004A5.802 5.802 0 0 0 3 48.106v94.664c0 73.771 48.085 139.876 120.15 161.486a5.828 5.828 0 0 0 3.333 0c70.504-21.15 120.148-86.102 120.148-161.486V48.105a5.798 5.798 0 0 0-5.799-5.8zm-5.801 100.465c0 69.289-44.215 129.292-110.215 149.863C59.342 272.229 14.602 211.678 14.602 142.77V53.493c17.757-2.551 31.84-16.635 34.392-34.392H200.64c2.551 17.757 16.635 31.84 34.392 34.392l-.001 89.277z"/><path fill="#FFCF00" d="M219.957 61.151a52.247 52.247 0 0 1-26.975-26.975 5.804 5.804 0 0 0-5.314-3.474h-39.66a5.802 5.802 0 0 0 0 11.602H184a63.772 63.772 0 0 0 27.828 27.828v72.636c0 56.77-34.078 105.75-87.012 125.356-52.933-19.606-87.012-68.588-87.012-125.356V70.132a63.77 63.77 0 0 0 27.829-27.828h35.992a5.801 5.801 0 0 0 0-11.602h-39.66a5.8 5.8 0 0 0-5.313 3.474 52.254 52.254 0 0 1-26.975 26.975 5.803 5.803 0 0 0-3.474 5.313v76.304c0 62.192 38.465 116.396 96.678 136.996a5.802 5.802 0 0 0 3.871 0c58.164-20.584 96.678-74.754 96.678-136.996V66.464a5.803 5.803 0 0 0-3.473-5.313z"/><path fill="#FFCF00" d="M124.816 92.191c-28.787 0-52.207 23.42-52.207 52.208 0 28.789 23.42 52.207 52.207 52.207 28.788 0 52.208-23.42 52.208-52.207-.001-28.787-23.42-52.208-52.208-52.208zm0 92.813c-22.39 0-40.604-18.216-40.604-40.605s18.216-40.604 40.604-40.604c22.389 0 40.605 18.216 40.605 40.604.001 22.389-18.214 40.605-40.605 40.605z"/><path fill="#FFCF00" d="M152.121 128.693a5.803 5.803 0 0 0-8.203 0l-24.901 24.902-7.5-7.498a5.8 5.8 0 1 0-8.204 8.203l11.602 11.603a5.788 5.788 0 0 0 4.104 1.699 5.783 5.783 0 0 0 4.102-1.699l29.003-29.004a5.805 5.805 0 0 0-.003-8.206z"/></svg>