<svg xmlns="http://www.w3.org/2000/svg" width="297" height="200" xml:space="preserve"><path fill="#FFCF00" d="m276.209 87.772-7.691-30.765a4.652 4.652 0 0 0 3.683-4.547v-4.959c0-10.771-8.765-19.531-19.531-19.531h-35.03V17.739c0-5.299-4.313-9.61-9.611-9.61H29.452c-5.299 0-9.611 4.312-9.611 9.61v84.325a4.65 4.65 0 0 0 9.301 0V17.738a.31.31 0 0 1 .31-.31h178.571c.172 0 .312.139.312.31v84.327a4.65 4.65 0 0 0 4.649 4.651 4.65 4.65 0 0 0 4.649-4.651v-5.271h54.884c6.75.004 12.48 4.437 14.449 10.541h-14.46a4.65 4.65 0 0 0-4.649 4.649v9.922c0 8.033 6.535 14.57 14.57 14.57h5.271v20.461H275.54c-3.994-11.533-14.959-19.842-27.834-19.842s-23.839 8.309-27.833 19.842h-2.239v-35.032a4.65 4.65 0 1 0-9.298 0v35.032h-96.483c-3.995-11.535-14.958-19.842-27.833-19.842s-23.839 8.307-27.833 19.842h-26.73a.312.312 0 0 1-.31-.313v-10.229h20.151a4.65 4.65 0 1 0 0-9.298H4.65a4.65 4.65 0 1 0 0 9.298h15.191v10.229c0 5.301 4.311 9.611 9.61 9.611h25.12c-.001.104-.008.205-.008.311 0 16.238 13.212 29.451 29.452 29.451 16.24 0 29.452-13.213 29.452-29.451 0-.104-.007-.207-.008-.311h104.803c-.001.104-.008.205-.008.311 0 16.238 13.213 29.451 29.451 29.451 16.24 0 29.452-13.213 29.452-29.451 0-.104-.007-.207-.009-.311h15.201a4.65 4.65 0 0 0 4.648-4.65v-49.604c.003-12.244-9.033-22.418-20.788-24.209zm-58.574-50.501h35.032c5.642 0 10.231 4.589 10.231 10.229v.311h-45.266l.003-10.54zm0 50.223V57.111h41.322l7.596 30.383h-48.918zM84.016 186.7c-11.111 0-20.151-9.04-20.151-20.151 0-11.109 9.04-20.15 20.151-20.15s20.151 9.041 20.151 20.15c0 11.111-9.04 20.151-20.151 20.151zm163.691 0c-11.111 0-20.152-9.04-20.152-20.151 0-11.109 9.041-20.15 20.152-20.15s20.15 9.041 20.15 20.15c0 11.111-9.039 20.151-20.15 20.151zm39.992-59.524h-5.27a5.276 5.276 0 0 1-5.271-5.271v-5.271h10.541v10.542z"/><path fill="#FFCF00" d="M84.016 156.938c-5.3 0-9.611 4.313-9.611 9.611 0 5.299 4.311 9.611 9.611 9.611 5.3 0 9.611-4.313 9.611-9.611 0-5.298-4.312-9.611-9.611-9.611zM247.707 156.938c-5.3 0-9.611 4.313-9.611 9.611 0 5.299 4.313 9.611 9.611 9.611s9.609-4.313 9.609-9.611c0-5.298-4.31-9.611-9.609-9.611zM193.143 137.098H123.7a4.65 4.65 0 0 0 0 9.298h69.442a4.65 4.65 0 0 0 .001-9.298zM74.095 117.256H14.571a4.65 4.65 0 1 0 0 9.298h59.524a4.65 4.65 0 0 0 0-9.298zM161.709 54.133a4.65 4.65 0 0 0-6.576 0l-41.355 41.354-21.514-21.512a4.65 4.65 0 1 0-6.576 6.576l24.802 24.803a4.643 4.643 0 0 0 3.288 1.361c1.189 0 2.38-.455 3.288-1.361l44.644-44.645a4.654 4.654 0 0 0-.001-6.576z"/></svg>